<svg width="4543" height="2381" viewBox="0 0 4543 2381" fill="none" xmlns="http://www.w3.org/2000/svg">
<g clip-path="url(#clip0_47_169)">
<path d="M372.496 466.813L158.763 458.236C101.952 456.245 5.68064 437.1 5.68064 297.874V181.622C5.83418 40.4051 77.9995 0.123047 194.539 0.123047H401.515C518.055 0.123047 591.141 39.4862 591.141 181.622V228.644H371.728C371.728 191.272 359.137 170.135 343.783 159.567C328.429 148.998 310.157 146.088 299.563 146.088C282.212 146.088 264.862 154.665 252.425 166.306C237.992 179.784 230.315 201.84 230.315 240.284V294.963L419.941 303.541C483.507 306.451 522.047 313.19 555.673 346.733C592.216 383.186 597.13 423.621 597.13 454.254V570.505C597.13 712.641 522.968 752.004 408.425 752.004H188.858C77.2318 752.004 0.153076 715.551 0.153076 570.505V530.223H224.48C225.401 553.198 230.315 572.496 243.673 584.903C256.11 598.381 274.535 605.12 295.724 605.12C344.858 605.12 372.803 568.667 372.803 518.736V466.813H372.496Z" fill="#1D1D1D"/>
<path d="M767.417 6.8623H1144.83L1309.42 745.265H1078.34L1046.56 600.219H844.342L809.641 745.265H600.668L767.417 6.8623ZM947.369 148.079H945.373L878.889 447.668H1012.63L947.216 148.079H947.369Z" fill="#1D1D1D"/>
<path d="M1684.84 466.813L1471.1 458.236C1414.29 456.245 1318.02 437.1 1318.02 297.874V181.622C1318.02 40.4051 1390.19 0.123047 1506.73 0.123047H1713.7C1830.24 0.123047 1903.33 39.4862 1903.33 181.622V228.644H1683.92C1683.92 191.272 1671.32 170.135 1655.97 159.567C1640.62 148.998 1622.34 146.088 1611.75 146.088C1594.4 146.088 1577.05 154.665 1564.61 166.306C1550.18 179.784 1542.5 201.84 1542.5 240.284V294.963L1732.13 303.541C1795.69 306.451 1834.23 313.19 1867.86 346.733C1904.4 383.186 1909.32 423.621 1909.32 454.254V570.505C1909.32 712.641 1835.16 752.004 1720.61 752.004H1501.05C1389.42 752.004 1312.34 715.551 1312.34 570.505V530.223H1536.67C1537.59 553.198 1542.5 572.496 1555.86 584.903C1568.3 598.381 1586.72 605.12 1607.91 605.12C1657.05 605.12 1684.99 568.667 1684.99 518.736V466.813H1684.84Z" fill="#1D1D1D"/>
<path d="M1935.26 6.8623H2362.73V158.648H2159.59V296.955H2362.73V443.839H2159.59V593.633H2362.73V745.419H1935.26V6.8623Z" fill="#1D1D1D"/>
<path d="M3181.12 6.8623H3404.52V301.703H3406.52L3572.81 6.8623H3806.81L3602.75 358.373L3828.92 745.419H3581.56L3406.36 439.091H3404.37V745.419H3180.96V6.8623H3181.12Z" fill="#1D1D1D"/>
<path d="M4000.42 6.8623H4377.83L4542.43 745.265H4311.34L4279.56 600.219H4077.34L4042.64 745.265H3833.67L4000.42 6.8623ZM4180.37 148.079H4178.38L4111.89 447.668H4245.63L4180.22 148.079H4180.37Z" fill="#1D1D1D"/>
<path d="M2.77832 1634.84H429.322V1786.63H227.105V1934.58H429.322V2086.37H227.105V2373.55H2.77832V1635.15V1634.84Z" fill="#1D1D1D"/>
<path d="M655.494 2380.14C543.868 2380.14 463.872 2344.6 463.872 2198.64V1810.67C463.872 1668.54 538.955 1628.26 655.494 1628.26H876.904C986.687 1628.26 1064.69 1662.87 1064.69 1810.67V2198.64C1064.69 2340.77 993.443 2380.14 877.978 2380.14H655.648H655.494ZM840.36 1865.35C840.36 1815.42 819.171 1775.14 766.199 1775.14C688.199 1775.14 688.199 1850.96 688.199 1874.08V2143.04C688.199 2168.01 692.037 2235.25 765.278 2235.25C802.896 2235.25 840.36 2214.11 840.36 2148.86V1865.51V1865.35Z" fill="#1D1D1D"/>
<path d="M1286.1 2380.14C1174.47 2380.14 1094.48 2344.6 1094.48 2198.64V1810.67C1094.48 1668.54 1169.56 1628.26 1286.1 1628.26H1507.51C1617.29 1628.26 1695.29 1662.87 1695.29 1810.67V2198.64C1695.29 2340.77 1624.05 2380.14 1508.58 2380.14H1286.25H1286.1ZM1470.96 1865.35C1470.96 1815.42 1449.77 1775.14 1396.8 1775.14C1318.8 1775.14 1318.8 1850.96 1318.8 1874.08V2143.04C1318.8 2168.01 1322.64 2235.25 1395.88 2235.25C1433.5 2235.25 1470.96 2214.11 1470.96 2148.86V1865.51V1865.35Z" fill="#1D1D1D"/>
<path d="M1725.08 1634.84H2134.27C2248.81 1634.84 2323.9 1673.29 2323.9 1816.34V2190.83C2323.9 2333.88 2248.81 2373.24 2134.27 2373.24H1725.08V1634.84ZM1949.41 1784.64V2220.69H2014.81C2086.98 2220.69 2098.65 2176.58 2098.65 2137.07V1868.11C2098.65 1813.43 2072.7 1784.48 2017.73 1784.48H1949.41V1784.64Z" fill="#1D1D1D"/>
<path d="M0.31958 822.461H224.646V1407.39H416.268V1561.02H0.31958V822.461Z" fill="#1D1D1D"/>
<path d="M1230.81 822.461H1455.13L1533.13 1319.02H1535.13L1616.97 822.461H1826.86L1705.56 1561.02H1345.5L1230.96 822.461H1230.81Z" fill="#1D1D1D"/>
<path d="M1851.91 822.461H2279.37V974.247H2076.23V1112.55H2279.37V1259.44H2076.23V1409.23H2279.37V1561.02H1851.91V822.461Z" fill="#1D1D1D"/>
<path d="M2692.39 1282.57L2478.66 1273.99C2421.84 1272 2325.57 1252.85 2325.57 1113.63V997.374C2325.57 856.157 2397.74 815.875 2514.28 815.875H2721.25C2837.79 815.875 2910.88 855.238 2910.88 997.374V1044.4H2691.31C2691.31 1006.87 2678.72 985.887 2663.37 975.319C2648.01 964.75 2629.74 961.84 2619.15 961.84C2601.8 961.84 2584.45 970.417 2572.01 982.058C2557.58 995.536 2549.9 1017.59 2549.9 1056.04V1110.72L2739.53 1119.29C2803.09 1122.2 2841.63 1128.94 2875.26 1162.48C2911.8 1198.94 2916.71 1239.37 2916.71 1270.01V1386.26C2916.71 1528.39 2842.55 1567.76 2728.01 1567.76H2508.44C2396.82 1567.76 2319.74 1531.3 2319.74 1386.26V1345.98H2544.07C2544.99 1368.95 2549.9 1388.25 2563.26 1400.65C2575.85 1414.13 2594.12 1420.87 2615.31 1420.87C2664.44 1420.87 2692.39 1384.42 2692.39 1334.49V1282.57Z" fill="#1D1D1D"/>
<path d="M2649.69 324.582V748.128H2434.45L2427.61 6.92334H2759.02C2793.67 141.154 2859.57 374.812 2895.69 473.485C2904.68 498.054 2909.35 509.883 2916.19 526.428C2923.02 542.973 2940.1 529.737 2933.27 516.501L2916.19 463.558V6.92334H3128.02V748.128H2803.44L2653.11 251.785C2649.69 241.859 2648.53 225.314 2639.44 225.314C2625.78 225.314 2625.78 235.241 2629.19 245.168L2649.69 324.582Z" fill="#1D1D1D"/>
</g>
<path d="M1222.35 1057.58C1222.35 1405.87 764.175 1584.92 764.175 1584.92C764.175 1584.92 306.002 1405.87 306.002 1057.58C306.002 909.161 416.707 788.928 553.36 788.928C642.415 788.928 720.569 840.084 764.175 916.666C807.781 840.084 885.935 788.928 974.99 788.928C1111.8 788.928 1222.35 909.161 1222.35 1057.58Z" fill="#BD112E"/>
<defs>
<clipPath id="clip0_47_169">
<rect width="4542.43" height="2380.01" fill="white" transform="translate(0 0.123047)"/>
</clipPath>
</defs>
</svg>
